<svg xmlns="http://www.w3.org/2000/svg" viewBox="0.0 -451.0 386.0 385.0"><path transform="scale(1.0,-1)" fill="currentColor" d="M138 194l-12 -3c-2 -1 -3 -1 -5 -1c-7 0 -14 5 -16 11l-103 240c-1 2 -2 4 -2 6c0 3 2 4 5 4c1 0 3 0 5 -1l241 -103c7 -3 11 -11 11 -19l-1 -2v-1l-4 -12c-2 -6 -7 -10 -13 -10c-2 0 -4 1 -6 2l-93 43c-3 1 -5 2 -6 2s-1 -1 -1 -1c0 -2 4 -6 4 -6l239 -239
c3 -3 5 -7 5 -11s-2 -8 -5 -11l-12 -11c-3 -4 -7 -5 -11 -5s-8 1 -11 5l-239 238c-3 3 -4 4 -5 4c0 0 -1 -2 -1 -4c0 -1 0 -2 1 -3l44 -92c1 -2 1 -3 1 -5c0 -6 -4 -13 -10 -15z"/></svg>
