<svg xmlns="http://www.w3.org/2000/svg" viewBox="0.0 -451.0 386.0 385.0"><path transform="scale(1.0,-1)" fill="currentColor" d="M126 326l12 -3c6 -2 10 -9 10 -15c0 -2 0 -3 -1 -5l-44 -92c-1 -1 -1 -2 -1 -3c0 -2 1 -4 1 -4c1 0 2 1 5 4l239 238c3 4 7 5 11 5s8 -1 11 -5l12 -11c3 -3 5 -7 5 -11s-2 -8 -5 -11l-239 -239s-4 -4 -4 -6c0 0 0 -1 1 -1s3 1 6 2l93 43c2 1 4 2 6 2c6 0 11 -4 13 -10
l4 -12v-1l1 -2c0 -8 -4 -16 -11 -19l-241 -103c-2 -1 -4 -1 -5 -1c-3 0 -5 1 -5 4c0 2 1 4 2 6l103 240c2 6 9 11 16 11c2 0 3 0 5 -1z"/></svg>
