<svg xmlns="http://www.w3.org/2000/svg" viewBox="0.0 -451.0 386.0 385.0"><path transform="scale(1.0,-1)" fill="currentColor" d="M248 323l12 3c2 1 3 1 5 1c7 0 14 -5 16 -11l103 -240c1 -2 2 -4 2 -6c0 -3 -2 -4 -5 -4c-1 0 -3 0 -5 1l-241 103c-7 3 -11 11 -11 19l1 2v1l4 12c2 6 7 10 13 10c2 0 4 -1 6 -2l93 -43c3 -1 5 -2 6 -2s1 1 1 1c0 2 -4 6 -4 6l-239 239c-3 3 -5 7 -5 11s2 8 5 11l12 11
c3 4 7 5 11 5s8 -1 11 -5l239 -238c3 -3 4 -4 5 -4c0 0 1 2 1 4c0 1 0 2 -1 3l-44 92c-1 2 -1 3 -1 5c0 6 4 13 10 15z"/></svg>
