<svg xmlns="http://www.w3.org/2000/svg" viewBox="0.0 -451.0 386.0 385.0"><path transform="scale(1.0,-1)" fill="currentColor" d="M260 191l-12 3c-6 2 -10 9 -10 15c0 2 0 3 1 5l44 92c1 1 1 2 1 3c0 2 -1 4 -1 4c-1 0 -2 -1 -5 -4l-239 -238c-3 -4 -7 -5 -11 -5s-8 1 -11 5l-12 11c-3 3 -5 7 -5 11s2 8 5 11l239 239s4 4 4 6l-1 1c-1 0 -3 -1 -6 -2l-93 -43c-2 -1 -4 -2 -6 -2c-6 0 -11 4 -13 10
l-4 12v1l-1 2c0 8 4 16 11 19l241 103c2 1 4 1 5 1c3 0 5 -1 5 -4c0 -2 -1 -4 -2 -6l-103 -240c-2 -6 -9 -11 -16 -11c-2 0 -3 0 -5 1z"/></svg>
