<svg xmlns="http://www.w3.org/2000/svg" viewBox="14.0 -1107.0 1062.0 1104.0"><path transform="scale(1.0,-1)" fill="currentColor" d="M48 1092c0 -16 0 -27 13 -35c12 -8 28 -9 42 -12c40 -11 76 -22 76 -73c0 -8 -1 -17 -3 -24c1 -7 4 -13 12 -19c12 -7 28 -8 43 -12l3 -1h2l2 -1h2l1 -1c38 -10 65 -25 65 -70c0 -8 -1 -16 -3 -24c1 -7 4 -13 12 -18c13 -8 29 -8 44 -12c18 -4 40 -9 54 -22
c15 -16 20 -33 20 -50c0 -7 -1 -14 -2 -21c1 -9 3 -17 13 -23c12 -8 28 -9 43 -13l3 -1h2l2 -1h2l1 -1c38 -9 65 -25 65 -69c0 -4 0 -9 -1 -13c0 -13 0 -24 13 -33c12 -7 28 -8 44 -12c41 -9 74 -25 74 -73c0 -8 -1 -16 -3 -24c1 -7 4 -13 12 -18c13 -8 29 -8 44 -12
c41 -9 74 -23 74 -71c0 -9 -1 -18 -3 -26c2 -7 5 -13 13 -18c12 -8 28 -9 42 -12c41 -11 75 -22 75 -73c0 -7 0 -14 -2 -20c1 -10 3 -17 13 -24c13 -8 29 -8 44 -12c41 -9 75 -24 75 -72c0 -25 -11 -48 -13 -60c-1 -9 -6 -13 -10 -13c-5 0 -10 5 -12 12c-2 13 -4 22 -14 32
c-23 22 -59 -3 -98 36c-14 13 -19 31 -19 48c0 6 1 13 2 19c-3 9 -6 17 -14 26c-22 22 -58 -3 -98 35c-14 14 -19 32 -19 50c0 7 1 14 2 20c-2 8 -5 15 -12 22c-23 22 -59 -3 -98 36c-14 14 -19 31 -19 48c0 7 1 14 2 21c-2 8 -5 15 -12 22c-23 23 -59 -3 -98 36
c-16 16 -18 31 -18 49v18c-3 10 -6 18 -15 27c-22 23 -58 -3 -98 36c-14 13 -19 31 -19 49c0 6 1 12 2 18c-2 10 -5 18 -13 26c-23 22 -59 -3 -98 36c-14 14 -19 31 -19 48c0 7 1 14 2 21c-2 8 -5 15 -12 22c-23 23 -59 -3 -99 36c-13 13 -18 31 -18 48c0 7 1 15 2 22
c-3 7 -6 14 -13 21c-22 23 -58 -2 -98 36c-14 14 -18 32 -18 49c0 32 16 65 21 73c2 4 4 6 6 6c4 0 7 -9 7 -15z"/></svg>
