<svg xmlns="http://www.w3.org/2000/svg" viewBox="28.0 -1106.0 1062.0 1104.0"><path transform="scale(1.0,-1)" fill="currentColor" d="M1056 1091c0 6 3 15 7 15c2 0 4 -2 6 -6c5 -8 21 -41 21 -73c0 -17 -4 -35 -18 -48c-40 -39 -76 -14 -99 -37c-7 -7 -10 -14 -12 -21c1 -7 2 -14 2 -21c0 -18 -5 -35 -19 -49c-39 -39 -75 -13 -98 -36c-7 -7 -10 -14 -12 -22c1 -7 2 -14 2 -21c0 -17 -5 -34 -19 -48
c-40 -39 -76 -14 -98 -36c-8 -8 -11 -16 -13 -26c1 -5 1 -11 1 -17c0 -18 -4 -36 -19 -50c-39 -39 -75 -13 -98 -36c-9 -9 -12 -18 -14 -30c1 -5 1 -9 1 -14c0 -18 -5 -36 -19 -50c-39 -39 -75 -13 -98 -36c-7 -7 -10 -14 -12 -22c1 -6 2 -13 2 -20c0 -18 -5 -35 -19 -49
c-40 -39 -76 -14 -98 -36c-7 -7 -10 -14 -13 -22c1 -7 2 -15 2 -22c0 -17 -5 -35 -18 -48c-40 -38 -76 -13 -98 -35c-9 -9 -12 -17 -14 -26c1 -6 2 -13 2 -19c0 -17 -5 -35 -19 -48c-40 -39 -76 -14 -98 -36c-10 -10 -12 -19 -15 -32c-1 -7 -6 -12 -11 -12c-4 0 -9 4 -10 13
c-2 12 -13 34 -13 59c0 48 35 64 76 73c14 4 30 4 42 12c10 7 13 14 13 24c-1 6 -2 13 -2 20c0 16 5 34 21 50c13 14 37 18 55 23c14 3 30 4 42 12c8 5 11 11 12 18c-2 8 -3 16 -3 24c0 17 5 34 21 51c14 13 37 18 55 22c14 4 30 4 42 12c8 5 11 11 13 18c-2 8 -3 17 -3 26
c0 49 35 63 76 71c13 4 29 5 42 12c13 9 13 20 13 33c-1 4 -1 9 -1 13c0 17 5 34 20 50c7 7 18 10 28 14c1 1 2 1 3 1l2 1h2l1 1h2l1 1h2l2 1h2l1 1h2l2 1h2l3 1c14 4 30 5 43 13c10 6 12 14 13 23c-2 7 -2 14 -2 21c0 17 5 34 20 50c14 13 37 18 55 22c14 4 30 4 42 12
c8 5 12 11 13 18c-2 8 -3 16 -3 25c0 40 21 55 55 66l1 1h2l1 1h2l2 1h2l1 1h2l2 1h2l3 1c14 4 30 5 43 12c8 6 11 12 12 19c-2 7 -3 16 -3 24c0 51 36 62 76 73c14 3 30 4 42 12c12 7 13 19 13 35z"/></svg>
