<svg xmlns="http://www.w3.org/2000/svg" viewBox="0.0 -141.0 332.0 847.0"><path transform="scale(1.0,-1)" fill="currentColor" d="M0 -695v648c0 97 99 188 222 188c65 0 110 -37 110 -94c0 -51 -36 -102 -85 -138c1 -10 1 -19 1 -28v-10c-3 -59 -8 -69 -21 -93l-3 -5c-1 -3 -2 -5 -2 -7s0 -3 2 -7c0 0 1 -2 1 -3c4 -10 19 -47 19 -92c0 -12 -1 -25 -4 -37c-11 -59 -31 -84 -94 -153
c-48 -52 -100 -67 -115 -163c-2 -7 -14 -17 -19 -17c-7 0 -12 11 -12 11zM211 -126v13c-33 -17 -69 -28 -102 -28c-31 0 -59 10 -79 27v-228c47 5 96 24 154 126c20 37 27 65 27 90zM48 -503h7c71 0 155 95 155 167c0 8 -1 17 -3 25c0 5 -2 13 -4 21c-1 2 -6 5 -10 5
c-3 0 -6 -1 -8 -4c-15 -22 -30 -40 -48 -61c-42 -48 -83 -69 -103 -141c0 -5 5 -12 14 -12z"/></svg>
