<svg xmlns="http://www.w3.org/2000/svg" viewBox="20.0 -1004.4 470.0 1019.4"><path transform="scale(1.0,-1)" fill="currentColor" d="M45 803v15l154 186h102l157 -186v-15h-73l-135 134l-135 -134h-70zM490 220c0 -139 -97 -235 -232 -235c-162 0 -238 117 -238 338c0 247 89 386 254 386c108 0 184 -69 201 -185h-88c-14 68 -57 107 -119 107c-101 0 -157 -96 -158 -269c38 52 93 79 163 79
c127 0 217 -89 217 -221zM400 213c0 95 -53 150 -138 150c-87 0 -147 -57 -147 -145c0 -91 62 -155 144 -155c81 0 141 61 141 150z"/></svg>
