<svg xmlns="http://www.w3.org/2000/svg" viewBox="20.0 -1004.4 476.0 1019.4"><path transform="scale(1.0,-1)" fill="currentColor" d="M45 803v15l154 186h102l157 -186v-15h-73l-135 134l-135 -134h-70zM496 200c0 -129 -98 -215 -238 -215s-238 86 -238 216c0 78 40 133 121 172c-72 45 -96 81 -96 147c0 111 88 189 213 189c126 0 213 -78 213 -189c0 -67 -24 -103 -97 -147c82 -39 122 -94 122 -173z
M381 518c0 69 -48 113 -123 113c-74 0 -123 -44 -123 -112c0 -67 49 -111 123 -111s123 44 123 110zM406 199c0 83 -60 135 -148 135s-148 -52 -148 -135s60 -136 146 -136c90 0 150 52 150 136z"/></svg>
