<svg xmlns="http://www.w3.org/2000/svg" viewBox="20.0 -1004.4 471.0 1019.4"><path transform="scale(1.0,-1)" fill="currentColor" d="M45 803v15l154 186h102l157 -186v-15h-73l-135 134l-135 -134h-70zM491 371c0 -245 -89 -386 -255 -386c-108 0 -184 69 -201 185h88c14 -68 57 -107 119 -107c101 0 157 96 158 269c-46 -55 -95 -79 -162 -79c-128 0 -218 89 -218 221c0 139 97 235 232 235
c162 0 239 -116 239 -338zM395 476c0 92 -62 156 -144 156c-81 0 -141 -61 -141 -151c0 -95 53 -150 138 -150c86 0 147 58 147 145z"/></svg>
