<svg xmlns="http://www.w3.org/2000/svg" viewBox="20.0 -1004.4 474.0 1019.4"><path transform="scale(1.0,-1)" fill="currentColor" d="M45 803v15l154 186h102l157 -186v-15h-73l-135 134l-135 -134h-70zM494 206c0 -134 -94 -221 -240 -221c-145 0 -223 71 -234 229h88c6 -103 53 -151 149 -151c92 0 147 53 147 142c0 79 -50 125 -147 125h-48v74c141 0 174 31 174 107c0 75 -47 121 -125 121
c-90 0 -133 -47 -135 -152h-88c3 151 79 229 222 229c135 0 216 -73 216 -195c0 -71 -33 -117 -99 -143c85 -29 120 -79 120 -165z"/></svg>
